<mxfile host="app.diagrams.net" agent="Mozilla/5.0 (Windows NT 10.0; Win64; x64) AppleWebKit/537.36 (KHTML, like Gecko) Chrome/127.0.0.0 Safari/537.36" version="24.7.7">
  <diagram id="q_YQo1uq7KRVeV5n0XlG" name="Page-1">
    <mxGraphModel dx="794" dy="1600" grid="1" gridSize="10" guides="1" tooltips="1" connect="1" arrows="1" fold="1" page="1" pageScale="1" pageWidth="850" pageHeight="1100" math="0" shadow="0">
      <root>
        <mxCell id="0" />
        <mxCell id="1" parent="0" />
        <mxCell id="bFd6O-PjYDpDgjIHrOda-8" value="" style="edgeStyle=orthogonalEdgeStyle;rounded=0;orthogonalLoop=1;jettySize=auto;html=1;" edge="1" parent="1" source="bFd6O-PjYDpDgjIHrOda-1" target="bFd6O-PjYDpDgjIHrOda-7">
          <mxGeometry relative="1" as="geometry" />
        </mxCell>
        <mxCell id="bFd6O-PjYDpDgjIHrOda-1" value="" style="shape=actor;whiteSpace=wrap;html=1;" vertex="1" parent="1">
          <mxGeometry x="60" y="150" width="40" height="50" as="geometry" />
        </mxCell>
        <mxCell id="bFd6O-PjYDpDgjIHrOda-2" value="Top 10 Recommendation" style="rounded=0;whiteSpace=wrap;html=1;" vertex="1" parent="1">
          <mxGeometry x="640" y="145" width="120" height="60" as="geometry" />
        </mxCell>
        <mxCell id="bFd6O-PjYDpDgjIHrOda-16" value="" style="edgeStyle=orthogonalEdgeStyle;rounded=0;orthogonalLoop=1;jettySize=auto;html=1;" edge="1" parent="1" source="bFd6O-PjYDpDgjIHrOda-3" target="bFd6O-PjYDpDgjIHrOda-2">
          <mxGeometry relative="1" as="geometry" />
        </mxCell>
        <mxCell id="bFd6O-PjYDpDgjIHrOda-3" value="Hybrid Recommendation" style="rounded=0;whiteSpace=wrap;html=1;" vertex="1" parent="1">
          <mxGeometry x="490" y="145" width="120" height="60" as="geometry" />
        </mxCell>
        <mxCell id="bFd6O-PjYDpDgjIHrOda-15" style="edgeStyle=orthogonalEdgeStyle;rounded=0;orthogonalLoop=1;jettySize=auto;html=1;entryX=0;entryY=0.5;entryDx=0;entryDy=0;" edge="1" parent="1" source="bFd6O-PjYDpDgjIHrOda-4" target="bFd6O-PjYDpDgjIHrOda-3">
          <mxGeometry relative="1" as="geometry" />
        </mxCell>
        <mxCell id="bFd6O-PjYDpDgjIHrOda-4" value="Context based Recommendation" style="rounded=0;whiteSpace=wrap;html=1;" vertex="1" parent="1">
          <mxGeometry x="320" y="250" width="120" height="60" as="geometry" />
        </mxCell>
        <mxCell id="bFd6O-PjYDpDgjIHrOda-10" value="" style="edgeStyle=orthogonalEdgeStyle;rounded=0;orthogonalLoop=1;jettySize=auto;html=1;" edge="1" parent="1" source="bFd6O-PjYDpDgjIHrOda-5" target="bFd6O-PjYDpDgjIHrOda-3">
          <mxGeometry relative="1" as="geometry" />
        </mxCell>
        <mxCell id="bFd6O-PjYDpDgjIHrOda-5" value="Content based Recommendation" style="rounded=0;whiteSpace=wrap;html=1;" vertex="1" parent="1">
          <mxGeometry x="320" y="145" width="120" height="60" as="geometry" />
        </mxCell>
        <mxCell id="bFd6O-PjYDpDgjIHrOda-13" style="edgeStyle=orthogonalEdgeStyle;rounded=0;orthogonalLoop=1;jettySize=auto;html=1;entryX=0;entryY=0.5;entryDx=0;entryDy=0;" edge="1" parent="1" source="bFd6O-PjYDpDgjIHrOda-6" target="bFd6O-PjYDpDgjIHrOda-3">
          <mxGeometry relative="1" as="geometry" />
        </mxCell>
        <mxCell id="bFd6O-PjYDpDgjIHrOda-6" value="SVD Recommendation" style="rounded=0;whiteSpace=wrap;html=1;" vertex="1" parent="1">
          <mxGeometry x="320" y="40" width="120" height="60" as="geometry" />
        </mxCell>
        <mxCell id="bFd6O-PjYDpDgjIHrOda-9" value="" style="edgeStyle=orthogonalEdgeStyle;rounded=0;orthogonalLoop=1;jettySize=auto;html=1;" edge="1" parent="1" source="bFd6O-PjYDpDgjIHrOda-7" target="bFd6O-PjYDpDgjIHrOda-5">
          <mxGeometry relative="1" as="geometry" />
        </mxCell>
        <mxCell id="bFd6O-PjYDpDgjIHrOda-11" style="edgeStyle=orthogonalEdgeStyle;rounded=0;orthogonalLoop=1;jettySize=auto;html=1;entryX=0;entryY=0.5;entryDx=0;entryDy=0;" edge="1" parent="1" source="bFd6O-PjYDpDgjIHrOda-7" target="bFd6O-PjYDpDgjIHrOda-6">
          <mxGeometry relative="1" as="geometry" />
        </mxCell>
        <mxCell id="bFd6O-PjYDpDgjIHrOda-12" style="edgeStyle=orthogonalEdgeStyle;rounded=0;orthogonalLoop=1;jettySize=auto;html=1;entryX=0;entryY=0.5;entryDx=0;entryDy=0;" edge="1" parent="1" source="bFd6O-PjYDpDgjIHrOda-7" target="bFd6O-PjYDpDgjIHrOda-4">
          <mxGeometry relative="1" as="geometry" />
        </mxCell>
        <mxCell id="bFd6O-PjYDpDgjIHrOda-7" value="Login&amp;nbsp;" style="rounded=0;whiteSpace=wrap;html=1;" vertex="1" parent="1">
          <mxGeometry x="150" y="145" width="120" height="60" as="geometry" />
        </mxCell>
        <mxCell id="bFd6O-PjYDpDgjIHrOda-17" value="Course Recommendation System: Prediction Pipeline" style="rounded=0;whiteSpace=wrap;html=1;" vertex="1" parent="1">
          <mxGeometry x="240" y="-10" width="290" height="30" as="geometry" />
        </mxCell>
      </root>
    </mxGraphModel>
  </diagram>
</mxfile>
